<svg xmlns="http://www.w3.org/2000/svg" xmlns:xlink="http://www.w3.org/1999/xlink" width="1880" zoomAndPan="magnify" viewBox="0 0 1410 712.499978" height="950" preserveAspectRatio="xMidYMid meet" version="1.0"><defs><g/><clipPath id="636732ba3c"><path d="M 0.496094 0 L 712.496094 0 L 712.496094 712 L 0.496094 712 Z M 0.496094 0 " clip-rule="nonzero"/></clipPath></defs><path fill="#dacb8d" d="M 471.351562 421.925781 C 406.304688 421.925781 373.488281 384.128906 373.488281 309.703125 C 373.488281 240.261719 407.476562 144.15625 471.351562 144.15625 C 500.359375 144.15625 526.730469 164.375 544.894531 201.292969 C 560.128906 231.765625 569.21875 272.199219 569.21875 309.703125 C 569.21875 384.128906 536.398438 421.925781 471.351562 421.925781 Z M 471.351562 164.667969 C 427.109375 164.667969 393.996094 241.144531 393.996094 309.703125 C 393.996094 373.289062 417.734375 401.417969 471.351562 401.417969 C 524.96875 401.417969 548.707031 372.996094 548.707031 309.703125 C 548.707031 240.851562 517.0625 164.667969 471.351562 164.667969 Z M 471.351562 164.667969 " fill-opacity="1" fill-rule="nonzero"/><path fill="#dacb8d" d="M 329.535156 315.566406 L 158.132812 315.566406 C 152.566406 315.566406 147.875 310.878906 147.875 305.3125 C 147.875 299.746094 152.566406 295.054688 158.132812 295.054688 L 329.535156 295.054688 C 335.105469 295.054688 339.792969 299.746094 339.792969 305.3125 C 339.792969 310.878906 335.105469 315.566406 329.535156 315.566406 Z M 329.535156 315.566406 " fill-opacity="1" fill-rule="nonzero"/><path fill="#dacb8d" d="M 266.835938 420.460938 L 217.609375 420.460938 C 176.882812 420.460938 143.773438 384.714844 143.773438 340.472656 L 143.773438 153.828125 C 143.773438 148.261719 148.460938 143.570312 154.027344 143.570312 C 159.59375 143.570312 164.285156 148.261719 164.285156 153.828125 L 164.285156 340.472656 C 164.285156 373.289062 188.308594 399.949219 217.609375 399.949219 L 266.835938 399.949219 C 296.429688 399.949219 320.160156 373.289062 320.160156 340.472656 L 320.160156 153.828125 C 320.160156 148.261719 324.851562 143.570312 330.417969 143.570312 C 335.984375 143.570312 340.671875 148.261719 340.671875 153.828125 L 340.671875 340.472656 C 340.964844 384.714844 307.855469 420.460938 266.835938 420.460938 Z M 266.835938 420.460938 " fill-opacity="1" fill-rule="nonzero"/><path fill="#dacb8d" d="M 256.578125 506.605469 C 251.011719 506.605469 246.324219 501.914062 246.324219 496.347656 L 246.324219 415.773438 C 246.324219 410.207031 251.011719 405.519531 256.578125 405.519531 C 262.144531 405.519531 266.835938 410.207031 266.835938 415.773438 L 266.835938 496.347656 C 266.835938 501.917969 262.144531 506.605469 256.578125 506.605469 Z M 256.578125 506.605469 " fill-opacity="1" fill-rule="nonzero"/><path fill="#dacb8d" d="M 226.984375 506.605469 C 221.417969 506.605469 216.734375 501.914062 216.734375 496.347656 L 216.734375 415.773438 C 216.734375 410.207031 221.417969 405.519531 226.984375 405.519531 C 232.554688 405.519531 237.242188 410.207031 237.242188 415.773438 L 237.242188 496.347656 C 237.242188 501.917969 232.847656 506.605469 226.984375 506.605469 Z M 226.984375 506.605469 " fill-opacity="1" fill-rule="nonzero"/><path fill="#dacb8d" d="M 272.988281 307.066406 C 267.421875 307.066406 262.730469 302.382812 262.730469 296.8125 L 262.730469 154.707031 C 262.730469 149.140625 267.421875 144.453125 272.988281 144.453125 C 278.554688 144.453125 283.242188 149.140625 283.242188 154.707031 L 283.242188 296.8125 C 283.242188 302.382812 278.847656 307.066406 272.988281 307.066406 Z M 272.988281 307.066406 " fill-opacity="1" fill-rule="nonzero"/><path fill="#dacb8d" d="M 211.457031 307.066406 C 205.890625 307.066406 201.199219 302.382812 201.199219 296.8125 L 201.199219 154.707031 C 201.199219 149.136719 205.890625 144.453125 211.457031 144.453125 C 217.023438 144.453125 221.710938 149.136719 221.710938 154.707031 L 221.710938 296.8125 C 221.710938 302.382812 217.023438 307.066406 211.457031 307.066406 Z M 211.457031 307.066406 " fill-opacity="1" fill-rule="nonzero"/><path fill="#dacb8d" d="M 272.695312 698.226562 C 267.128906 698.226562 262.730469 693.835938 262.4375 688.265625 L 257.753906 513.929688 L 225.816406 513.929688 L 221.710938 667.757812 C 221.417969 673.324219 216.734375 678.011719 211.164062 677.71875 C 205.597656 677.425781 200.910156 672.738281 201.199219 667.171875 L 205.597656 503.382812 C 205.890625 497.816406 210.285156 493.417969 215.851562 493.417969 L 267.714844 493.417969 C 273.28125 493.417969 277.679688 497.816406 277.96875 503.382812 L 282.949219 687.683594 C 283.242188 693.542969 278.847656 698.226562 272.695312 698.226562 C 272.988281 698.226562 272.988281 698.226562 272.695312 698.226562 Z M 272.695312 698.226562 " fill-opacity="1" fill-rule="nonzero"/><g clip-path="url(#636732ba3c)"><path fill="#dacb8d" d="M 356.496094 712 C 160.179688 712 0.496094 552.3125 0.496094 356 C 0.496094 159.6875 160.179688 0 356.496094 0 C 552.808594 0 712.496094 159.6875 712.496094 356 C 712.496094 552.3125 552.808594 712 356.496094 712 Z M 356.496094 20.511719 C 171.609375 20.511719 21.007812 171.117188 21.007812 356 C 21.007812 540.882812 171.609375 691.488281 356.496094 691.488281 C 541.378906 691.488281 691.984375 540.882812 691.984375 356 C 691.984375 171.117188 541.378906 20.511719 356.496094 20.511719 Z M 356.496094 20.511719 " fill-opacity="1" fill-rule="nonzero"/></g><path fill="#dacb8d" d="M 486.003906 506.605469 C 480.433594 506.605469 475.746094 501.914062 475.746094 496.347656 L 475.746094 415.773438 C 475.746094 410.207031 480.433594 405.519531 486.003906 405.519531 C 491.570312 405.519531 496.257812 410.207031 496.257812 415.773438 L 496.257812 496.347656 C 496.257812 501.917969 491.570312 506.605469 486.003906 506.605469 Z M 486.003906 506.605469 " fill-opacity="1" fill-rule="nonzero"/><path fill="#dacb8d" d="M 456.410156 506.605469 C 450.84375 506.605469 446.152344 501.914062 446.152344 496.347656 L 446.152344 415.773438 C 446.152344 410.207031 450.84375 405.519531 456.410156 405.519531 C 461.976562 405.519531 466.664062 410.207031 466.664062 415.773438 L 466.664062 496.347656 C 466.664062 501.917969 462.269531 506.605469 456.410156 506.605469 Z M 456.410156 506.605469 " fill-opacity="1" fill-rule="nonzero"/><path fill="#dacb8d" d="M 440.292969 696.472656 C 440.292969 696.472656 440 696.472656 440.292969 696.472656 C 434.433594 696.179688 429.746094 691.488281 430.039062 685.921875 L 435.019531 503.382812 C 435.3125 497.816406 439.707031 493.417969 445.273438 493.417969 L 497.136719 493.417969 C 502.703125 493.417969 507.097656 497.816406 507.390625 503.382812 L 511.789062 664.828125 C 512.078125 670.394531 507.390625 675.078125 501.824219 675.375 C 501.824219 675.375 501.53125 675.375 501.53125 675.375 C 495.964844 675.375 491.570312 670.980469 491.277344 665.414062 L 487.171875 513.929688 L 455.234375 513.929688 L 450.550781 686.507812 C 450.257812 692.074219 445.859375 696.472656 440.292969 696.472656 Z M 440.292969 696.472656 " fill-opacity="1" fill-rule="nonzero"/><g fill="#dacb8d" fill-opacity="1"><g transform="translate(712.494711, 394.483976)"><g><path d="M 16.171875 -3.59375 L 17.953125 -3.59375 C 19.867188 -3.59375 21.546875 -4.25 22.984375 -5.5625 C 24.421875 -6.882812 25.675781 -8.503906 26.75 -10.421875 C 27.832031 -12.335938 28.671875 -14.367188 29.265625 -16.515625 C 29.867188 -18.671875 30.171875 -20.707031 30.171875 -22.625 L 30.171875 -214.796875 C 30.171875 -216.472656 29.867188 -218.390625 29.265625 -220.546875 C 28.671875 -222.703125 27.832031 -224.738281 26.75 -226.65625 C 25.675781 -228.570312 24.421875 -230.1875 22.984375 -231.5 C 21.546875 -232.820312 19.867188 -233.484375 17.953125 -233.484375 L 16.171875 -233.484375 L 16.171875 -237.078125 L 67.890625 -237.078125 L 67.890625 -233.484375 L 66.09375 -233.484375 C 64.175781 -233.484375 62.5 -232.820312 61.0625 -231.5 C 59.625 -230.1875 58.425781 -228.570312 57.46875 -226.65625 C 56.507812 -224.738281 55.726562 -222.703125 55.125 -220.546875 C 54.53125 -218.390625 54.234375 -216.472656 54.234375 -214.796875 L 54.234375 -13.296875 L 132.90625 -13.296875 C 137.457031 -13.296875 141.40625 -14.367188 144.75 -16.515625 C 148.101562 -18.671875 150.914062 -21.363281 153.1875 -24.59375 C 155.46875 -27.832031 157.144531 -31.304688 158.21875 -35.015625 C 159.300781 -38.734375 159.84375 -42.148438 159.84375 -45.265625 L 163.4375 -45.265625 L 163.4375 0 L 16.171875 0 Z M 16.171875 -3.59375 "/></g></g></g><g fill="#dacb8d" fill-opacity="1"><g transform="translate(879.525146, 394.483976)"><g><path d="M 158.40625 -23.34375 C 158.40625 -21.664062 158.644531 -19.691406 159.125 -17.421875 C 159.601562 -15.148438 160.257812 -12.992188 161.09375 -10.953125 C 161.9375 -8.921875 163.078125 -7.1875 164.515625 -5.75 C 165.953125 -4.3125 167.628906 -3.59375 169.546875 -3.59375 L 169.546875 0 L 134.703125 0 L 134.703125 -19.75 C 131.109375 -14.488281 125.835938 -9.34375 118.890625 -4.3125 C 111.953125 0.71875 102.972656 3.234375 91.953125 3.234375 C 78.066406 3.234375 67.050781 0.835938 58.90625 -3.953125 C 50.769531 -8.742188 44.546875 -14.847656 40.234375 -22.265625 C 35.921875 -29.691406 33.164062 -37.773438 31.96875 -46.515625 C 30.769531 -55.253906 30.171875 -63.457031 30.171875 -71.125 L 30.171875 -122.484375 C 30.171875 -124.640625 30.109375 -126.734375 29.984375 -128.765625 C 29.867188 -130.804688 29.390625 -132.664062 28.546875 -134.34375 C 27.710938 -136.019531 26.457031 -137.394531 24.78125 -138.46875 C 23.101562 -139.550781 20.707031 -140.09375 17.59375 -140.09375 L 17.59375 -143.328125 L 53.875 -154.8125 L 53.875 -63.21875 C 53.875 -45.019531 57.828125 -31.609375 65.734375 -22.984375 C 73.640625 -14.367188 83.335938 -10.0625 94.828125 -10.0625 C 101.054688 -10.0625 106.625 -11.4375 111.53125 -14.1875 C 116.4375 -16.9375 120.625 -20.226562 124.09375 -24.0625 C 127.570312 -27.894531 130.207031 -31.847656 132 -35.921875 C 133.800781 -39.992188 134.703125 -43.347656 134.703125 -45.984375 L 134.703125 -122.484375 C 134.703125 -124.640625 134.640625 -126.734375 134.515625 -128.765625 C 134.398438 -130.804688 133.921875 -132.664062 133.078125 -134.34375 C 132.242188 -136.019531 130.988281 -137.394531 129.3125 -138.46875 C 127.632812 -139.550781 125.238281 -140.09375 122.125 -140.09375 L 122.125 -143.328125 L 158.40625 -154.8125 Z M 158.40625 -23.34375 "/></g></g></g><g fill="#dacb8d" fill-opacity="1"><g transform="translate(1067.748645, 394.483976)"><g><path d="M 108.484375 -3.59375 C 113.023438 -3.59375 115.296875 -5.269531 115.296875 -8.625 C 115.296875 -9.820312 113.863281 -12.453125 111 -16.515625 L 75.078125 -66.09375 L 37.71875 -15.453125 C 37 -14.492188 36.160156 -13.175781 35.203125 -11.5 C 34.242188 -9.820312 33.765625 -8.382812 33.765625 -7.1875 C 33.765625 -4.789062 35.082031 -3.59375 37.71875 -3.59375 L 37.71875 0 L 3.953125 0 L 3.953125 -3.59375 C 7.304688 -3.59375 10.894531 -4.96875 14.71875 -7.71875 C 18.550781 -10.476562 21.785156 -13.769531 24.421875 -17.59375 L 67.890625 -76.515625 L 27.65625 -131.109375 C 26.457031 -132.546875 25.078125 -134.222656 23.515625 -136.140625 C 21.960938 -138.054688 20.171875 -139.851562 18.140625 -141.53125 C 16.109375 -143.207031 14.070312 -144.582031 12.03125 -145.65625 C 10 -146.726562 8.144531 -147.265625 6.46875 -147.265625 L 6.46875 -150.859375 L 58.90625 -150.859375 L 58.90625 -147.265625 C 57.46875 -147.265625 55.96875 -146.785156 54.40625 -145.828125 C 52.851562 -144.878906 52.078125 -143.085938 52.078125 -140.453125 C 52.078125 -138.773438 52.796875 -137.097656 54.234375 -135.421875 L 83.328125 -95.1875 L 111 -131.828125 C 112.914062 -134.222656 114.109375 -136.140625 114.578125 -137.578125 C 115.054688 -139.015625 115.296875 -140.332031 115.296875 -141.53125 C 115.296875 -142.96875 114.878906 -144.28125 114.046875 -145.46875 C 113.210938 -146.664062 111.957031 -147.265625 110.28125 -147.265625 L 110.28125 -150.859375 L 144.765625 -150.859375 L 144.765625 -147.265625 C 140.929688 -147.265625 137.335938 -145.410156 133.984375 -141.703125 C 130.628906 -137.992188 127.632812 -134.460938 125 -131.109375 L 90.15625 -84.765625 L 138.296875 -19.75 C 141.410156 -15.445312 145.117188 -11.675781 149.421875 -8.4375 C 153.734375 -5.207031 157.6875 -3.59375 161.28125 -3.59375 L 161.28125 0 L 108.484375 0 Z M 108.484375 -3.59375 "/></g></g></g><g fill="#dacb8d" fill-opacity="1"><g transform="translate(1235.138088, 394.483976)"><g><path d="M 35.921875 -72.5625 C 36.878906 -64.175781 38.914062 -56.210938 42.03125 -48.671875 C 45.144531 -41.128906 49.273438 -34.484375 54.421875 -28.734375 C 59.566406 -22.984375 65.847656 -18.375 73.265625 -14.90625 C 80.691406 -11.4375 89.316406 -9.703125 99.140625 -9.703125 C 104.410156 -9.703125 109.976562 -10.476562 115.84375 -12.03125 C 121.707031 -13.59375 127.15625 -15.804688 132.1875 -18.671875 C 137.21875 -21.546875 141.707031 -25.078125 145.65625 -29.265625 C 149.601562 -33.460938 152.296875 -38.195312 153.734375 -43.46875 L 156.96875 -43.46875 L 156.96875 -16.515625 C 155.53125 -16.515625 153.910156 -16.035156 152.109375 -15.078125 C 150.316406 -14.128906 148.226562 -12.9375 145.84375 -11.5 C 141.050781 -8.625 134.582031 -5.566406 126.4375 -2.328125 C 118.300781 0.898438 107.523438 2.515625 94.109375 2.515625 C 83.335938 2.515625 73.101562 0.957031 63.40625 -2.15625 C 53.707031 -5.269531 45.144531 -10.054688 37.71875 -16.515625 C 30.289062 -22.984375 24.363281 -31.242188 19.9375 -41.296875 C 15.507812 -51.359375 13.296875 -63.335938 13.296875 -77.234375 C 13.296875 -86.085938 14.789062 -95.0625 17.78125 -104.15625 C 20.769531 -113.257812 25.316406 -121.460938 31.421875 -128.765625 C 37.535156 -136.078125 45.378906 -142.003906 54.953125 -146.546875 C 64.535156 -151.097656 76.03125 -153.375 89.4375 -153.375 C 101.414062 -153.375 111.894531 -151.335938 120.875 -147.265625 C 129.851562 -143.203125 137.273438 -137.578125 143.140625 -130.390625 C 149.003906 -123.203125 153.375 -114.695312 156.25 -104.875 C 159.125 -95.0625 160.5625 -84.289062 160.5625 -72.5625 Z M 88 -141.53125 C 79.625 -141.53125 72.378906 -139.851562 66.265625 -136.5 C 60.160156 -133.144531 54.953125 -128.832031 50.640625 -123.5625 C 46.335938 -118.289062 42.988281 -112.300781 40.59375 -105.59375 C 38.195312 -98.894531 36.640625 -92.191406 35.921875 -85.484375 L 138.296875 -85.484375 C 138.054688 -92.429688 136.796875 -99.253906 134.515625 -105.953125 C 132.242188 -112.660156 129.070312 -118.648438 125 -123.921875 C 120.925781 -129.191406 115.773438 -133.441406 109.546875 -136.671875 C 103.328125 -139.910156 96.144531 -141.53125 88 -141.53125 Z M 88 -141.53125 "/></g></g></g><g fill="#dacb8d" fill-opacity="1"><g transform="translate(730.403728, 589.013424)"><g><path d="M 8.09375 -1.796875 L 8.984375 -1.796875 C 9.828125 -1.796875 10.609375 -2.15625 11.328125 -2.875 C 12.046875 -3.59375 12.675781 -4.429688 13.21875 -5.390625 C 13.757812 -6.347656 14.148438 -7.394531 14.390625 -8.53125 C 14.628906 -9.675781 14.75 -10.726562 14.75 -11.6875 L 14.75 -107.34375 C 14.75 -108.175781 14.628906 -109.128906 14.390625 -110.203125 C 14.148438 -111.285156 13.757812 -112.335938 13.21875 -113.359375 C 12.675781 -114.378906 12.015625 -115.21875 11.234375 -115.875 C 10.453125 -116.539062 9.582031 -116.875 8.625 -116.875 L 7.734375 -116.875 L 7.734375 -118.671875 L 37.21875 -118.671875 C 48.363281 -118.671875 57.082031 -116.210938 63.375 -111.296875 C 69.664062 -106.378906 72.8125 -99.847656 72.8125 -91.703125 C 72.8125 -88.222656 72.210938 -85.101562 71.015625 -82.34375 C 69.816406 -79.59375 68.285156 -77.132812 66.421875 -74.96875 C 64.566406 -72.8125 62.5625 -70.984375 60.40625 -69.484375 C 58.25 -67.992188 56.210938 -66.769531 54.296875 -65.8125 C 59.328125 -64.851562 63.519531 -63.234375 66.875 -60.953125 C 70.238281 -58.671875 72.96875 -56.0625 75.0625 -53.125 C 77.164062 -50.1875 78.632812 -47.039062 79.46875 -43.6875 C 80.3125 -40.332031 80.734375 -37.035156 80.734375 -33.796875 C 80.734375 -27.566406 79.59375 -22.320312 77.3125 -18.0625 C 75.03125 -13.8125 72 -10.335938 68.21875 -7.640625 C 64.445312 -4.941406 60.132812 -2.992188 55.28125 -1.796875 C 50.425781 -0.597656 45.425781 0 40.28125 0 L 8.09375 0 Z M 68.5 -32.71875 C 67.539062 -41.945312 64.421875 -49.078125 59.140625 -54.109375 C 53.867188 -59.148438 46.441406 -61.671875 36.859375 -61.671875 L 26.796875 -61.671875 L 26.796875 -5.9375 L 37.21875 -5.9375 C 46.925781 -5.9375 54.566406 -8.125 60.140625 -12.5 C 65.710938 -16.875 68.5 -22.957031 68.5 -30.75 Z M 61.125 -90.078125 C 60.769531 -97.023438 58.34375 -102.535156 53.84375 -106.609375 C 49.351562 -110.691406 43.332031 -112.734375 35.78125 -112.734375 L 26.796875 -112.734375 L 26.796875 -67.421875 L 36.140625 -67.421875 C 41.171875 -67.421875 45.273438 -68.078125 48.453125 -69.390625 C 51.628906 -70.710938 54.175781 -72.421875 56.09375 -74.515625 C 58.007812 -76.617188 59.328125 -78.925781 60.046875 -81.4375 C 60.765625 -83.957031 61.125 -86.414062 61.125 -88.8125 Z M 61.125 -90.078125 "/></g></g></g><g fill="#dacb8d" fill-opacity="1"><g transform="translate(818.322485, 589.013424)"><g><path d="M 79.296875 -11.6875 C 79.296875 -10.84375 79.414062 -9.851562 79.65625 -8.71875 C 79.894531 -7.582031 80.222656 -6.503906 80.640625 -5.484375 C 81.054688 -4.460938 81.625 -3.59375 82.34375 -2.875 C 83.0625 -2.15625 83.898438 -1.796875 84.859375 -1.796875 L 84.859375 0 L 67.421875 0 L 67.421875 -9.890625 C 65.628906 -7.253906 62.992188 -4.675781 59.515625 -2.15625 C 56.035156 0.363281 51.539062 1.625 46.03125 1.625 C 39.070312 1.625 33.554688 0.425781 29.484375 -1.96875 C 25.410156 -4.375 22.296875 -7.429688 20.140625 -11.140625 C 17.984375 -14.859375 16.601562 -18.90625 16 -23.28125 C 15.40625 -27.65625 15.109375 -31.757812 15.109375 -35.59375 L 15.109375 -61.3125 C 15.109375 -62.382812 15.078125 -63.429688 15.015625 -64.453125 C 14.953125 -65.472656 14.710938 -66.398438 14.296875 -67.234375 C 13.878906 -68.078125 13.25 -68.769531 12.40625 -69.3125 C 11.5625 -69.851562 10.363281 -70.125 8.8125 -70.125 L 8.8125 -71.734375 L 26.96875 -77.5 L 26.96875 -31.640625 C 26.96875 -22.535156 28.945312 -15.820312 32.90625 -11.5 C 36.863281 -7.1875 41.71875 -5.03125 47.46875 -5.03125 C 50.582031 -5.03125 53.367188 -5.71875 55.828125 -7.09375 C 58.285156 -8.476562 60.382812 -10.128906 62.125 -12.046875 C 63.863281 -13.960938 65.179688 -15.9375 66.078125 -17.96875 C 66.972656 -20.007812 67.421875 -21.691406 67.421875 -23.015625 L 67.421875 -61.3125 C 67.421875 -62.382812 67.390625 -63.429688 67.328125 -64.453125 C 67.273438 -65.472656 67.035156 -66.398438 66.609375 -67.234375 C 66.191406 -68.078125 65.5625 -68.769531 64.71875 -69.3125 C 63.882812 -69.851562 62.6875 -70.125 61.125 -70.125 L 61.125 -71.734375 L 79.296875 -77.5 Z M 79.296875 -11.6875 "/></g></g></g><g fill="#dacb8d" fill-opacity="1"><g transform="translate(912.53395, 589.013424)"><g><path d="M 24.8125 -69.40625 L 24.8125 -11.6875 C 24.8125 -10.726562 24.929688 -9.675781 25.171875 -8.53125 C 25.410156 -7.394531 25.800781 -6.347656 26.34375 -5.390625 C 26.882812 -4.429688 27.484375 -3.59375 28.140625 -2.875 C 28.796875 -2.15625 29.601562 -1.796875 30.5625 -1.796875 L 30.5625 0 L 7.1875 0 L 7.1875 -1.796875 C 8.03125 -1.796875 8.8125 -2.15625 9.53125 -2.875 C 10.25 -3.59375 10.875 -4.429688 11.40625 -5.390625 C 11.945312 -6.347656 12.335938 -7.394531 12.578125 -8.53125 C 12.828125 -9.675781 12.953125 -10.726562 12.953125 -11.6875 L 12.953125 -69.40625 L 3.953125 -69.40625 L 3.953125 -75.515625 L 12.953125 -75.515625 L 12.953125 -90.078125 C 12.953125 -93.796875 13.070312 -97.390625 13.3125 -100.859375 C 13.550781 -104.335938 14.269531 -107.453125 15.46875 -110.203125 C 16.664062 -112.960938 18.488281 -115.179688 20.9375 -116.859375 C 23.394531 -118.546875 26.785156 -119.390625 31.109375 -119.390625 C 33.503906 -119.390625 35.570312 -119.117188 37.3125 -118.578125 C 39.050781 -118.035156 40.546875 -117.4375 41.796875 -116.78125 C 43.054688 -116.125 44.101562 -115.523438 44.9375 -114.984375 C 45.78125 -114.441406 46.503906 -114.171875 47.109375 -114.171875 L 47.109375 -101.046875 L 45.484375 -101.046875 C 44.890625 -104.523438 43.332031 -107.429688 40.8125 -109.765625 C 38.289062 -112.097656 35.773438 -113.265625 33.265625 -113.265625 C 29.785156 -113.265625 27.503906 -111.4375 26.421875 -107.78125 C 25.347656 -104.125 24.8125 -99.0625 24.8125 -92.59375 L 24.8125 -75.515625 L 45.125 -75.515625 L 45.125 -69.40625 Z M 24.8125 -69.40625 "/></g></g></g><g fill="#dacb8d" fill-opacity="1"><g transform="translate(962.875971, 589.013424)"><g><path d="M 24.8125 -69.40625 L 24.8125 -11.6875 C 24.8125 -10.726562 24.929688 -9.675781 25.171875 -8.53125 C 25.410156 -7.394531 25.800781 -6.347656 26.34375 -5.390625 C 26.882812 -4.429688 27.484375 -3.59375 28.140625 -2.875 C 28.796875 -2.15625 29.601562 -1.796875 30.5625 -1.796875 L 30.5625 0 L 7.1875 0 L 7.1875 -1.796875 C 8.03125 -1.796875 8.8125 -2.15625 9.53125 -2.875 C 10.25 -3.59375 10.875 -4.429688 11.40625 -5.390625 C 11.945312 -6.347656 12.335938 -7.394531 12.578125 -8.53125 C 12.828125 -9.675781 12.953125 -10.726562 12.953125 -11.6875 L 12.953125 -69.40625 L 3.953125 -69.40625 L 3.953125 -75.515625 L 12.953125 -75.515625 L 12.953125 -90.078125 C 12.953125 -93.796875 13.070312 -97.390625 13.3125 -100.859375 C 13.550781 -104.335938 14.269531 -107.453125 15.46875 -110.203125 C 16.664062 -112.960938 18.488281 -115.179688 20.9375 -116.859375 C 23.394531 -118.546875 26.785156 -119.390625 31.109375 -119.390625 C 33.503906 -119.390625 35.570312 -119.117188 37.3125 -118.578125 C 39.050781 -118.035156 40.546875 -117.4375 41.796875 -116.78125 C 43.054688 -116.125 44.101562 -115.523438 44.9375 -114.984375 C 45.78125 -114.441406 46.503906 -114.171875 47.109375 -114.171875 L 47.109375 -101.046875 L 45.484375 -101.046875 C 44.890625 -104.523438 43.332031 -107.429688 40.8125 -109.765625 C 38.289062 -112.097656 35.773438 -113.265625 33.265625 -113.265625 C 29.785156 -113.265625 27.503906 -111.4375 26.421875 -107.78125 C 25.347656 -104.125 24.8125 -99.0625 24.8125 -92.59375 L 24.8125 -75.515625 L 45.125 -75.515625 L 45.125 -69.40625 Z M 24.8125 -69.40625 "/></g></g></g><g fill="#dacb8d" fill-opacity="1"><g transform="translate(1013.217992, 589.013424)"><g><path d="M 17.984375 -36.3125 C 18.460938 -32.125 19.476562 -28.140625 21.03125 -24.359375 C 22.59375 -20.585938 24.660156 -17.257812 27.234375 -14.375 C 29.816406 -11.5 32.960938 -9.191406 36.671875 -7.453125 C 40.390625 -5.722656 44.707031 -4.859375 49.625 -4.859375 C 52.257812 -4.859375 55.046875 -5.242188 57.984375 -6.015625 C 60.921875 -6.796875 63.644531 -7.90625 66.15625 -9.34375 C 68.675781 -10.78125 70.925781 -12.546875 72.90625 -14.640625 C 74.882812 -16.742188 76.234375 -19.113281 76.953125 -21.75 L 78.578125 -21.75 L 78.578125 -8.265625 C 77.859375 -8.265625 77.046875 -8.023438 76.140625 -7.546875 C 75.242188 -7.066406 74.195312 -6.46875 73 -5.75 C 70.601562 -4.3125 67.363281 -2.78125 63.28125 -1.15625 C 59.207031 0.457031 53.816406 1.265625 47.109375 1.265625 C 41.710938 1.265625 36.585938 0.484375 31.734375 -1.078125 C 26.878906 -2.640625 22.59375 -5.035156 18.875 -8.265625 C 15.164062 -11.503906 12.203125 -15.640625 9.984375 -20.671875 C 7.765625 -25.710938 6.65625 -31.707031 6.65625 -38.65625 C 6.65625 -43.09375 7.398438 -47.585938 8.890625 -52.140625 C 10.390625 -56.691406 12.664062 -60.796875 15.71875 -64.453125 C 18.78125 -68.109375 22.707031 -71.070312 27.5 -73.34375 C 32.300781 -75.625 38.054688 -76.765625 44.765625 -76.765625 C 50.765625 -76.765625 56.007812 -75.742188 60.5 -73.703125 C 65 -71.671875 68.710938 -68.859375 71.640625 -65.265625 C 74.578125 -61.671875 76.765625 -57.414062 78.203125 -52.5 C 79.648438 -47.582031 80.375 -42.1875 80.375 -36.3125 Z M 44.046875 -70.84375 C 39.847656 -70.84375 36.222656 -70.003906 33.171875 -68.328125 C 30.117188 -66.648438 27.507812 -64.488281 25.34375 -61.84375 C 23.1875 -59.207031 21.507812 -56.210938 20.3125 -52.859375 C 19.113281 -49.503906 18.335938 -46.148438 17.984375 -42.796875 L 69.21875 -42.796875 C 69.101562 -46.265625 68.472656 -49.675781 67.328125 -53.03125 C 66.191406 -56.394531 64.601562 -59.394531 62.5625 -62.03125 C 60.53125 -64.664062 57.953125 -66.789062 54.828125 -68.40625 C 51.710938 -70.03125 48.117188 -70.84375 44.046875 -70.84375 Z M 44.046875 -70.84375 "/></g></g></g><g fill="#dacb8d" fill-opacity="1"><g transform="translate(1100.417459, 589.013424)"><g><path d="M 25.71875 -69.40625 L 25.71875 -26.078125 C 25.71875 -22.953125 25.773438 -20.128906 25.890625 -17.609375 C 26.015625 -15.097656 26.316406 -13.003906 26.796875 -11.328125 C 27.273438 -9.648438 27.992188 -8.359375 28.953125 -7.453125 C 29.910156 -6.554688 31.226562 -6.109375 32.90625 -6.109375 C 35.414062 -6.109375 37.78125 -7.304688 40 -9.703125 C 42.21875 -12.109375 43.628906 -14.988281 44.234375 -18.34375 L 45.84375 -18.34375 L 45.84375 -5.21875 C 44.769531 -5.21875 43.875 -4.859375 43.15625 -4.140625 C 42.195312 -3.296875 40.847656 -2.394531 39.109375 -1.4375 C 37.367188 -0.476562 34.757812 0 31.28125 0 C 26.96875 0 23.613281 -0.835938 21.21875 -2.515625 C 18.820312 -4.191406 17.082031 -6.410156 16 -9.171875 C 14.925781 -11.929688 14.296875 -14.988281 14.109375 -18.34375 C 13.929688 -21.695312 13.84375 -25.113281 13.84375 -28.59375 L 13.84375 -69.40625 L 3.78125 -69.40625 L 3.78125 -75.515625 L 13.84375 -75.515625 L 13.84375 -91.515625 C 13.84375 -93.554688 13.570312 -95.441406 13.03125 -97.171875 C 12.488281 -98.910156 10.722656 -99.84375 7.734375 -99.96875 L 7.734375 -101.765625 L 25.71875 -107.515625 L 25.71875 -75.515625 L 45.84375 -75.515625 L 45.84375 -69.40625 Z M 25.71875 -69.40625 "/></g></g></g><g fill="#dacb8d" fill-opacity="1"><g transform="translate(1151.658463, 589.013424)"><g/></g></g><g fill="#dacb8d" fill-opacity="1"><g transform="translate(1198.404552, 589.013424)"><g><path d="M 7.90625 -118.671875 L 33.4375 -118.671875 C 46.75 -118.671875 56.847656 -116.125 63.734375 -111.03125 C 70.628906 -105.9375 74.078125 -98.710938 74.078125 -89.359375 C 74.078125 -84.328125 72.878906 -79.832031 70.484375 -75.875 C 68.085938 -71.914062 64.941406 -68.585938 61.046875 -65.890625 C 57.148438 -63.191406 52.773438 -61.125 47.921875 -59.6875 C 43.066406 -58.25 38.238281 -57.53125 33.4375 -57.53125 L 26.609375 -57.53125 L 26.609375 -11.6875 C 26.609375 -10.726562 26.726562 -9.675781 26.96875 -8.53125 C 27.207031 -7.394531 27.597656 -6.347656 28.140625 -5.390625 C 28.679688 -4.429688 29.28125 -3.59375 29.9375 -2.875 C 30.59375 -2.15625 31.398438 -1.796875 32.359375 -1.796875 L 33.265625 -1.796875 L 33.265625 0 L 7.90625 0 L 7.90625 -1.796875 L 8.8125 -1.796875 C 9.644531 -1.796875 10.421875 -2.15625 11.140625 -2.875 C 11.859375 -3.59375 12.457031 -4.429688 12.9375 -5.390625 C 13.425781 -6.347656 13.789062 -7.394531 14.03125 -8.53125 C 14.269531 -9.675781 14.390625 -10.726562 14.390625 -11.6875 L 14.390625 -107.515625 C 14.390625 -109.191406 13.90625 -111.109375 12.9375 -113.265625 C 11.976562 -115.429688 10.601562 -116.632812 8.8125 -116.875 L 7.90625 -116.875 Z M 26.609375 -112.375 L 26.609375 -63.828125 L 32 -63.828125 C 36.800781 -63.828125 41.085938 -64.484375 44.859375 -65.796875 C 48.628906 -67.117188 51.773438 -68.859375 54.296875 -71.015625 C 56.816406 -73.171875 58.734375 -75.628906 60.046875 -78.390625 C 61.367188 -81.148438 62.03125 -83.96875 62.03125 -86.84375 C 62.03125 -90.320312 61.457031 -93.585938 60.3125 -96.640625 C 59.175781 -99.691406 57.316406 -102.382812 54.734375 -104.71875 C 52.160156 -107.0625 48.773438 -108.921875 44.578125 -110.296875 C 40.390625 -111.679688 35.238281 -112.375 29.125 -112.375 Z M 26.609375 -112.375 "/></g></g></g><g fill="#dacb8d" fill-opacity="1"><g transform="translate(1279.670868, 589.013424)"><g><path d="M 79.828125 -1.796875 L 80.734375 -1.796875 C 81.566406 -1.796875 82.34375 -2.125 83.0625 -2.78125 C 83.78125 -3.445312 84.410156 -4.285156 84.953125 -5.296875 C 85.492188 -6.316406 85.882812 -7.394531 86.125 -8.53125 C 86.363281 -9.675781 86.484375 -10.726562 86.484375 -11.6875 L 86.484375 -60.59375 L 28.953125 -60.59375 L 28.953125 -11.6875 C 28.953125 -10.726562 29.070312 -9.675781 29.3125 -8.53125 C 29.550781 -7.394531 29.910156 -6.347656 30.390625 -5.390625 C 30.867188 -4.429688 31.4375 -3.59375 32.09375 -2.875 C 32.75 -2.15625 33.554688 -1.796875 34.515625 -1.796875 L 35.421875 -1.796875 L 35.421875 0 L 10.25 0 L 10.25 -1.796875 L 11.140625 -1.796875 C 11.984375 -1.796875 12.765625 -2.125 13.484375 -2.78125 C 14.203125 -3.445312 14.832031 -4.285156 15.375 -5.296875 C 15.914062 -6.316406 16.304688 -7.394531 16.546875 -8.53125 C 16.785156 -9.675781 16.90625 -10.726562 16.90625 -11.6875 L 16.90625 -107.515625 C 16.90625 -108.359375 16.785156 -109.316406 16.546875 -110.390625 C 16.304688 -111.472656 15.945312 -112.492188 15.46875 -113.453125 C 14.988281 -114.410156 14.382812 -115.21875 13.65625 -115.875 C 12.9375 -116.539062 12.097656 -116.875 11.140625 -116.875 L 10.25 -116.875 L 10.25 -118.671875 L 35.421875 -118.671875 L 35.421875 -116.875 L 34.515625 -116.875 C 33.554688 -116.875 32.71875 -116.539062 32 -115.875 C 31.28125 -115.21875 30.710938 -114.410156 30.296875 -113.453125 C 29.878906 -112.492188 29.550781 -111.472656 29.3125 -110.390625 C 29.070312 -109.316406 28.953125 -108.359375 28.953125 -107.515625 L 28.953125 -66.890625 L 86.484375 -66.890625 L 86.484375 -107.515625 C 86.484375 -108.359375 86.363281 -109.316406 86.125 -110.390625 C 85.882812 -111.472656 85.523438 -112.492188 85.046875 -113.453125 C 84.566406 -114.410156 83.96875 -115.21875 83.25 -115.875 C 82.53125 -116.539062 81.691406 -116.875 80.734375 -116.875 L 79.828125 -116.875 L 79.828125 -118.671875 L 105 -118.671875 L 105 -116.875 L 104.109375 -116.875 C 103.140625 -116.875 102.296875 -116.539062 101.578125 -115.875 C 100.859375 -115.21875 100.289062 -114.410156 99.875 -113.453125 C 99.457031 -112.492188 99.128906 -111.472656 98.890625 -110.390625 C 98.648438 -109.316406 98.53125 -108.359375 98.53125 -107.515625 L 98.53125 -11.6875 C 98.53125 -10.726562 98.675781 -9.675781 98.96875 -8.53125 C 99.269531 -7.394531 99.660156 -6.347656 100.140625 -5.390625 C 100.617188 -4.429688 101.1875 -3.59375 101.84375 -2.875 C 102.507812 -2.15625 103.265625 -1.796875 104.109375 -1.796875 L 105 -1.796875 L 105 0 L 79.828125 0 Z M 79.828125 -1.796875 "/></g></g></g></svg>